<svg width="1024" height="1024" viewBox="0 0 1024 1024" fill="none" xmlns="http://www.w3.org/2000/svg">
<g clip-path="url(#clip0_1_196)">
<path d="M1018.51 511.406C1021.54 793.848 797.228 1023.08 517.49 1023.41C237.752 1023.73 8.52209 795.036 5.49003 512.595C2.45797 230.153 226.772 0.922665 506.51 0.594468C786.248 0.266271 1015.48 228.964 1018.51 511.406Z" fill="#002762"/>
<path d="M267.645 511.033L509.011 512.255" stroke="white" stroke-width="10"/>
<path d="M502.363 106.148L501.35 45.9847" stroke="white" stroke-width="10"/>
<path d="M519.836 978.503L518.824 918.339" stroke="white" stroke-width="10"/>
<path d="M50.2126 515.652L109.802 515.582" stroke="white" stroke-width="10"/>
<path d="M911.206 509.279L970.795 509.209" stroke="white" stroke-width="10"/>
<path d="M221.663 226.785L179.006 184.356" stroke="white" stroke-width="10"/>
<path d="M842.124 840L799.467 797.57" stroke="white" stroke-width="10"/>
<path d="M189.028 841.775L230.906 799.378" stroke="white" stroke-width="10"/>
<path d="M790.361 225.369L832.239 182.973" stroke="white" stroke-width="10"/>
<path d="M508.961 509.246L503.343 175.336" stroke="white" stroke-width="10"/>
<path d="M566.525 508.822C567.039 539.334 542.969 564.167 512.869 564.39C482.769 564.613 457.87 540.143 457.356 509.63C456.843 479.117 480.913 454.284 511.013 454.061C541.113 453.838 566.012 478.309 566.525 508.822Z" fill="#002762" stroke="white" stroke-width="10"/>
<path d="M542.368 757.302C541.904 757.833 541.239 758.097 540.372 758.093C537.239 758.078 532.226 755.188 525.335 749.423C518.51 743.591 512.453 737.796 507.161 732.038C507.502 733.84 508.149 736.876 509.1 741.147C509.507 742.815 509.848 744.417 510.121 745.951C510.461 747.486 510.633 748.687 510.636 749.554C510.645 751.487 509.95 752.65 508.551 753.044C508.222 753.909 507.312 751.738 505.823 746.531C504.401 741.325 503.042 735.319 501.746 728.513C500.517 721.64 499.892 715.904 499.873 711.304C499.863 708.971 500.055 707.072 500.448 705.607C501.312 704.945 502.044 704.615 502.644 704.618C503.844 704.623 504.682 705.66 505.157 707.729C505.633 709.731 506.079 712.9 506.498 717.235L506.708 719.536C509.307 719.415 512.838 718.865 517.3 717.886C521.829 716.907 525.857 715.559 529.383 713.843C532.975 712.06 534.766 709.935 534.755 707.468C534.75 706.135 533.777 704.664 531.836 703.055C529.963 701.379 527.057 699.966 523.119 698.814C519.247 697.662 514.478 697.073 508.811 697.047L505.611 697.032C501.812 697.014 498.848 697.633 496.72 698.89C494.592 700.08 493.536 702.675 493.553 706.675C492.553 706.67 491.65 706.033 490.845 704.762C490.04 703.492 489.635 702.323 489.63 701.257C489.612 697.123 491.567 694.433 495.495 693.184C499.49 691.937 505.22 691.33 512.687 691.365C516.62 691.384 520.723 692.036 524.995 693.323C529.267 694.609 532.876 696.626 535.821 699.373C538.765 702.054 540.246 705.394 540.263 709.394C540.275 712.127 539.051 714.388 536.593 716.176C534.2 717.965 531.373 719.352 528.111 720.337C524.848 721.321 520.853 722.336 516.124 723.38C512.194 724.228 509.63 724.85 508.432 725.244C513.595 732.201 518.552 737.625 523.301 741.513C528.118 745.403 533.133 748.926 538.346 752.084C540.151 753.159 541.421 753.965 542.156 754.501C542.892 755.038 543.261 755.54 543.263 756.007C543.265 756.473 542.967 756.905 542.368 757.302Z" fill="white"/>
<path d="M504.185 716.078C494.984 715.968 488.242 713.87 483.958 709.783C479.674 705.697 477.519 700.453 477.491 694.053C477.467 688.32 479.021 685.461 482.154 685.476C482.755 685.745 483.057 686.046 483.058 686.38C483.059 686.646 482.927 687.012 482.663 687.478C482.465 687.944 482.3 688.376 482.168 688.775C481.84 689.974 481.678 691.106 481.683 692.173C481.696 695.106 482.708 697.978 484.72 700.787C486.732 703.596 489.442 705.909 492.849 707.725C496.257 709.474 499.894 710.358 503.76 710.376C506.627 710.39 508.855 709.133 510.444 706.608C512.1 704.082 512.916 700.186 512.894 694.919C512.88 691.719 512.599 688.418 512.051 685.016L506.495 648.391C507.224 647.394 507.855 646.897 508.388 646.9C510.055 646.907 511.501 649.914 512.727 655.92C513.952 661.859 515.391 671.032 517.044 683.439L517.459 686.741C517.942 690.61 518.188 693.644 518.198 695.844C518.226 702.444 517.047 707.472 514.662 710.927C512.277 714.383 508.785 716.099 504.185 716.078Z" fill="white"/>
</g>
<defs>
<clipPath id="clip0_1_196">
<rect width="1024" height="1024" fill="white"/>
</clipPath>
</defs>
</svg>
